<?xml version="1.0" encoding="iso-8859-1"?>
<!-- Generator: Adobe Illustrator 16.0.0, SVG Export Plug-In . SVG Version: 6.00 Build 0)  -->
<!DOCTYPE svg PUBLIC "-//W3C//DTD SVG 1.1//EN" "http://www.w3.org/Graphics/SVG/1.1/DTD/svg11.dtd">
<svg version="1.1" id="Capa_1" xmlns="http://www.w3.org/2000/svg" xmlns:xlink="http://www.w3.org/1999/xlink" x="0px" y="0px"
	 width="594.108px" height="594.108px" viewBox="0 0 594.108 594.108" style="enable-background:new 0 0 594.108 594.108;"
	 xml:space="preserve">
<g>
	<g>
		<path d="M543.927,425.964c0,5.942-4.979,10.775-11.176,10.775H381.253c-53.915,0-73.486,24.332-73.486,24.332l-2.489,3.344
			l-1.163,1.617c-0.01,0-0.01,0-0.01,0c-5.142,6.979-12.702,0.055-12.738,0l-3.489-4.343c-2.589-3.107-22.396-24.95-70.32-24.95
			H61.344c-6.169,0-11.148-4.852-11.148-10.794v-322.29c0-5.956,4.988-10.762,11.148-10.762h121.269
			c90.209,0,98.75,51.235,99.341,66.114v224.148c0,16.291,7.759,19.335,12.139,19.78h6.524c4.461-0.445,11.557-3.099,11.557-15.791
			V156.131h-0.081c0.69-18.635,7.94-63.238,62.201-63.238h158.458c6.197,0,11.176,4.811,11.176,10.762V425.964L543.927,425.964z
			 M584.068,156.141h-0.527c-10.176,0.063-11.757-8.8-11.93-12.897V78.965c0-6.851-5.569-12.411-12.411-12.411H375.429
			c-46.119,0-63.311,17.082-67.58,22.46l-1.173,1.617l-0.009,0.018l-3.644,4.988l0,0c-4.879,6.706-9.131,3.843-11.185,1.654
			l-6.96-8.677l-3.434-4.143c-5.779-6.074-20.852-17.927-50.718-17.927H34.94c-6.86,0-12.42,5.561-12.42,12.412v63.469
			c0,11.099-6.033,13.343-9.735,13.706h-2.762C7.01,156.309,0,158.067,0,170.969v302.423c0,7.433,6.02,13.447,13.438,13.447h178.683
			c57.005,0,81.846,21.497,89.296,29.729l4.252,5.27h0.009c0,0,11.403,12.884,23.414,0l0,0l2.508-2.926v0.036l0.019-0.036
			l3.18-3.725c0.091-0.109,0.863-0.964,1.963-2.108c9.521-9.249,33.29-26.24,79.773-26.24h184.153c7.423,0,13.42-6.015,13.42-13.447
			V168.039C594.117,157.117,586.186,156.195,584.068,156.141L584.068,156.141z"/>
	</g>
</g>
<g>
</g>
<g>
</g>
<g>
</g>
<g>
</g>
<g>
</g>
<g>
</g>
<g>
</g>
<g>
</g>
<g>
</g>
<g>
</g>
<g>
</g>
<g>
</g>
<g>
</g>
<g>
</g>
<g>
</g>
</svg>
