<?xml version="1.0" encoding="utf-8"?>
<!-- Generator: Adobe Illustrator 23.0.5, SVG Export Plug-In . SVG Version: 6.00 Build 0)  -->
<svg version="1.1" id="Layer_1" xmlns="http://www.w3.org/2000/svg" xmlns:xlink="http://www.w3.org/1999/xlink" x="0px" y="0px"
	 viewBox="0 0 91 91" style="enable-background:new 0 0 91 91;" xml:space="preserve">
<style type="text/css">
	.st0{fill:#FFFFFF;}
</style>
<g>
	<path class="st0" d="M90.6,36.4c-0.3-1-1.3-1.7-2.4-1.7H58.5L48.3,3.5c-0.3-1-1.3-1.7-2.4-1.7s-2,0.7-2.4,1.7L33.3,34.7H3.6
		c-1.1,0-2.1,0.7-2.4,1.7c-0.3,1,0,2.2,0.9,2.8l24,17.1l-9.7,29.4c-0.3,1,0,2.2,0.9,2.8c0.9,0.6,2.1,0.6,2.9,0l25.6-18.2l25.6,18.2
		c0.4,0.3,0.9,0.5,1.5,0.5c0.5,0,1-0.2,1.5-0.5c0.9-0.6,1.2-1.8,0.9-2.8l-9.7-29.4l24-17.1C90.5,38.6,90.9,37.5,90.6,36.4z"/>
</g>
</svg>
